<?xml version="1.0" encoding="utf-8"?>
<svg version="1.1" id="Layer_1" xmlns="http://www.w3.org/2000/svg" x="0px" y="0px" width="100%" viewBox="0 0 800 800" enable-background="new 0 0 800 800">
  <path opacity="1.000000" stroke="none" d=" M610.321167,736.724670 C586.690063,721.224365 574.270813,699.588501 574.185181,671.734192 C573.922241,586.241577 573.930481,500.747223 574.165649,415.254456 C574.263245,379.769714 596.574463,351.169281 630.748779,342.013367 C635.730774,340.678589 636.539673,338.603546 636.360291,333.904083 C635.473328,310.660553 632.341370,287.844788 624.843079,265.745209 C615.201050,237.327713 597.365662,215.164169 573.179871,197.751572 C541.705322,175.091415 506.481140,161.006943 469.281342,150.932220 C415.636780,136.403824 363.461578,141.286301 312.311401,161.541397 C279.150818,174.672745 248.880524,192.256500 225.250549,219.749359 C202.147415,246.629242 188.310944,277.928986 181.113571,312.336609 C179.110626,321.911865 177.996841,331.673126 176.605911,340.517517 C185.139557,344.985413 193.408340,348.262268 200.498566,353.223450 C222.083405,368.326874 232.703766,389.706268 232.770447,415.852142 C232.987686,501.011719 233.027344,586.172668 232.778976,671.332092 C232.651947,714.885864 199.514282,747.643005 156.011688,747.782715 C137.361008,747.842590 118.556503,748.774597 100.089005,746.805237 C63.271465,742.879211 36.096104,712.495789 34.232868,675.423096 C34.115841,673.094604 34.101891,670.758972 34.101707,668.426697 C34.095131,584.933105 34.020420,501.439453 34.133873,417.946045 C34.177570,385.787476 48.184170,361.829895 76.965134,346.797363 C78.510170,345.990387 80.199265,343.782867 80.302803,342.132111 C86.283295,246.786346 130.830887,173.135590 207.119751,117.701126 C249.972733,86.562485 298.214813,68.170052 350.461548,59.872143 C380.103088,55.164425 409.875092,54.147362 439.638794,57.151276 C510.203156,64.272995 573.257935,89.743340 627.467590,136.001480 C668.745056,171.224304 698.801453,214.189087 716.444702,265.643707 C725.082947,290.836182 729.645081,316.804565 730.865906,343.370300 C730.990234,346.075317 731.559937,347.666809 734.153320,349.186829 C759.934753,364.297943 772.692993,387.201385 772.765625,416.820221 C772.973389,501.479858 772.929443,586.140442 772.801270,670.800415 C772.734985,714.582764 739.710876,747.634766 696.028870,747.783447 C677.377808,747.846863 658.707642,747.758423 640.079468,746.961121 C629.506714,746.508606 619.694580,742.482422 610.321167,736.724670 z" style="fill: rgb(168, 85, 247);"/>
  <path opacity="1.000000" stroke="none" d=" M451.894592,730.998291 C451.894592,608.762512 451.894592,487.026489 451.894592,365.062622 C458.693085,365.062622 465.115051,365.062622 471.847473,365.062622 C471.847473,492.423126 471.847473,619.783203 471.847473,747.487244 C465.410065,747.487244 458.872589,747.487244 451.894592,747.487244 C451.894592,742.079041 451.894592,736.788574 451.894592,730.998291 z" style="fill: rgb(168, 85, 247);"/>
  <path opacity="1.000000" stroke="none" d=" M386.585083,256.545776 C386.660767,290.474884 386.660767,323.949982 386.660767,357.800232 C378.047943,357.800232 369.689728,357.800232 360.903229,357.800232 C360.903229,345.180511 360.903229,332.589722 360.903229,319.763123 C335.071442,319.763123 309.662872,319.763123 283.769623,319.763123 C283.769623,332.485962 283.769623,345.067505 283.769623,357.907532 C275.034271,357.907532 266.776245,357.907532 258.220886,357.907532 C258.220886,323.885437 258.220886,289.810699 258.220886,255.444885 C266.474640,255.444885 274.730713,255.444885 283.487244,255.444885 C283.487244,267.987640 283.487244,280.577423 283.487244,293.492493 C309.388153,293.492493 334.795288,293.492493 360.652740,293.492493 C360.652740,280.996613 360.652740,268.412201 360.652740,254.755859 C369.587006,255.217468 378.048187,255.654617 386.585083,256.545776 z" style="fill: rgb(168, 85, 247);"/>
  <path opacity="1.000000" stroke="none" d=" M426.676300,280.628113 C426.676300,272.375275 426.676300,264.122437 426.676300,255.157806 C429.311951,255.157806 431.065460,255.157776 432.819000,255.157791 C459.969391,255.158051 487.119812,255.144180 514.270203,255.162704 C539.859009,255.180161 556.002258,271.330383 556.031921,296.936951 C556.053711,315.758972 556.036377,334.581055 556.036499,353.403107 C556.036499,354.860352 556.036499,356.317596 556.036499,357.971375 C547.359741,357.971375 539.095947,357.971375 530.221619,357.971375 C530.221619,356.281799 530.221680,354.675232 530.221680,353.068695 C530.221680,334.579773 530.226685,316.090851 530.219910,297.601929 C530.215393,285.397095 525.877747,281.010040 513.834961,281.005280 C506.549133,281.002411 499.263306,281.004730 491.606934,281.004730 C491.606934,306.905579 491.606934,332.317566 491.606934,357.949219 C482.971344,357.949219 474.714264,357.949219 466.098755,357.949219 C466.098755,332.478455 466.098755,307.067535 466.098755,280.930878 C453.002441,280.930878 440.253235,280.930878 427.074768,280.749329 C426.645477,280.567749 426.676300,280.628113 426.676300,280.628113 z" style="fill: rgb(168, 85, 247);"/>
  <path opacity="1.000000" stroke="none" d=" M329.625549,393.178833 C330.690826,392.185669 331.728485,391.265930 332.790314,391.237122 C338.272705,391.088531 343.761292,391.168152 349.616516,391.168152 C349.616516,502.371033 349.616516,613.393860 349.616516,724.624756 C343.083771,724.624756 336.660645,724.624756 329.609100,724.624756 C329.609100,614.186707 329.609100,503.924957 329.625549,393.178833 z" style="fill: rgb(168, 85, 247);"/>
  <path opacity="1.000000" stroke="none" d=" M502.337708,486.000244 C502.337738,554.103149 502.337738,621.705994 502.337738,689.570312 C495.508911,689.570312 489.082764,689.570312 482.326233,689.570312 C482.326233,599.386963 482.326233,509.192383 482.326233,418.745758 C488.716705,418.745758 495.153961,418.745758 502.337708,418.745758 C502.337708,441.034729 502.337708,463.267456 502.337708,486.000244 z" style="fill: rgb(168, 85, 247);"/>
  <path opacity="1.000000" stroke="none" d=" M269.355957,575.999756 C269.355957,529.543945 269.355957,483.588165 269.355957,437.392456 C276.313873,437.392456 282.748016,437.392456 289.553894,437.392456 C289.553894,516.440796 289.553894,595.494263 289.553894,674.866333 C283.065247,674.866333 276.493439,674.866333 269.355957,674.866333 C269.355957,642.071045 269.355957,609.285400 269.355957,575.999756 z" style="fill: rgb(168, 85, 247);"/>
  <path opacity="1.000000" stroke="none" d=" M360.921295,546.000000 C360.921295,509.039429 360.921295,472.578857 360.921295,435.806488 C367.733032,435.806488 374.262756,435.806488 380.992310,435.806488 C380.992310,516.097534 380.992310,596.190002 380.992310,676.640991 C374.567444,676.640991 368.018646,676.640991 360.921295,676.640991 C360.921295,633.318909 360.921295,589.909485 360.921295,546.000000 z" style="fill: rgb(168, 85, 247);"/>
  <path opacity="1.000000" stroke="none" d=" M442.039001,551.000000 C442.039001,588.774353 442.039001,626.048645 442.039001,663.576477 C435.255524,663.576477 428.843201,663.576477 422.085175,663.576477 C422.085175,592.164185 422.085175,520.810364 422.085175,449.144745 C428.498840,449.144745 435.046814,449.144745 442.039001,449.144745 C442.039001,482.971252 442.039001,516.735657 442.039001,551.000000 z" style="fill: rgb(168, 85, 247);"/>
  <path opacity="1.000000" stroke="none" d=" M316.825623,632.169067 C311.053986,632.169189 305.765198,632.169189 300.258392,632.169189 C300.258392,581.559692 300.258392,531.327209 300.258392,480.792267 C306.811005,480.792267 313.372772,480.792267 320.271698,480.792267 C320.340790,482.232910 320.456238,483.520142 320.456512,484.807404 C320.465820,532.430603 320.468628,580.053833 320.451263,627.677063 C320.450470,629.839722 321.299561,632.736694 316.825623,632.169067 z" style="fill: rgb(168, 85, 247);"/>
  <path opacity="1.000000" stroke="none" d=" M514.189087,483.823547 C520.479004,483.816406 526.285278,483.816406 532.363281,483.816406 C532.363281,527.173706 532.363281,570.194275 532.363281,613.532715 C525.691650,613.532715 519.151672,613.532715 512.074280,613.532715 C512.074280,611.986023 512.074219,610.542419 512.074280,609.098755 C512.074402,568.994568 512.055115,528.890381 512.143616,488.786438 C512.147217,487.133362 513.161865,485.482513 514.189087,483.823547 z" style="fill: rgb(168, 85, 247);"/>
  <path opacity="1.000000" stroke="none" d=" M390.772522,519.999878 C390.772522,511.181915 390.772522,502.863953 390.772522,494.189880 C397.428680,494.189880 403.976257,494.189880 410.791138,494.189880 C410.791138,534.155762 410.791138,574.196472 410.791138,614.534729 C404.375488,614.534729 397.965515,614.534729 390.772522,614.534729 C390.772522,583.234924 390.772522,551.867371 390.772522,519.999878 z" style="fill: rgb(168, 85, 247);"/>
  <path opacity="1.000000" stroke="none" d=" M426.616516,280.550232 C426.792480,280.973816 427.176270,281.414734 427.176758,281.856110 C427.205475,307.107239 427.202332,332.358398 427.202332,357.886902 C418.745514,357.886902 410.515686,357.886902 401.976593,357.886902 C401.976593,332.397003 401.976593,306.909882 401.976593,280.984558 C409.990051,280.984558 417.937225,280.984558 426.280334,280.806335 C426.676300,280.628113 426.645477,280.567749 426.616516,280.550232 z" style="fill: rgb(168, 85, 247);"/>
</svg>